<svg xmlns="http://www.w3.org/2000/svg" xmlns:v="https://svgstorm.com"
viewBox = "0 0 230 219"
width="230"
height="219">
<g fill="None" fill-opacity="0.0" stroke="#FDFDFC" stroke-opacity="1.00" stroke-width="0.3"><path d="
M 0.00 219.00 
L 230.00 219.00
L 230.00 0.00
L 0.00 0.00
L 0.00 219.00
M 75.00 50.00 
C 75.20 51.64 74.85 53.35 75.00 55.00
C 78.33 55.00 81.67 55.00 85.00 55.00
C 85.37 54.00 85.63 52.98 86.00 52.00
C 86.39 50.97 86.28 49.10 88.00 49.00
C 88.00 50.33 88.00 51.67 88.00 53.00
C 87.98 53.50 88.16 54.55 88.00 55.00
C 89.63 55.73 95.22 55.38 97.00 55.00
C 97.36 54.92 98.74 54.20 99.00 54.00
C 111.36 44.58 119.27 67.51 106.00 69.00
C 103.87 69.24 99.59 68.52 98.00 67.00
C 98.57 70.23 97.57 73.74 98.00 77.00
C 97.00 77.00 96.00 77.00 95.00 77.00
C 98.63 81.83 102.65 83.04 108.00 80.00
C 109.95 78.69 113.45 74.78 115.00 73.00
C 118.78 67.92 122.90 62.97 128.00 59.00
C 128.04 59.01 128.79 58.27 129.00 58.00
C 134.44 51.01 143.12 47.13 151.00 44.00
C 142.38 51.65 134.20 60.61 128.00 70.00
C 127.87 76.66 127.59 93.08 140.22 86.22 C 152.85 79.36 167.17 67.58 182.00 70.00
C 176.70 71.70 171.70 73.94 167.00 77.00
C 164.96 80.28 163.10 83.06 162.00 87.00
C 158.67 98.94 169.85 99.36 179.01 97.01 C 188.17 94.65 199.00 96.10 208.00 98.00
C 204.18 100.39 198.22 97.80 194.00 100.00
C 193.56 100.16 193.00 100.00 193.00 100.00
C 183.92 104.44 178.03 116.66 189.69 119.31 C 201.36 121.95 208.47 123.01 216.00 131.00
C 205.12 126.60 192.03 125.79 180.00 128.00
C 172.14 130.90 162.30 141.20 158.00 148.00
C 154.86 152.96 153.02 158.63 151.00 164.00
C 158.49 163.80 166.72 159.86 172.70 155.70 C 178.67 151.53 185.61 148.75 190.75 143.75 C 195.89 138.75 201.45 131.55 210.00 133.00 C 218.55 134.45 206.85 145.67 204.00 149.00
C 200.63 152.94 196.89 156.67 193.00 160.00
C 172.36 177.64 144.10 193.73 115.78 188.22 C 87.45 182.71 58.03 163.84 28.00 177.00
C 34.89 164.54 39.09 148.69 53.00 142.00
C 51.99 130.87 53.00 119.18 53.00 108.00
C 53.00 99.14 50.32 85.37 53.00 77.00
C 45.49 75.92 37.55 77.81 30.00 77.00
C 30.66 70.17 28.68 62.01 31.00 56.00
C 33.38 53.53 44.39 54.65 48.00 55.00
C 49.64 54.80 51.35 55.15 53.00 55.00
C 53.00 53.33 53.00 51.67 53.00 50.00
C 53.60 45.06 51.82 39.52 54.00 35.00
C 60.51 37.23 68.08 35.41 75.00 36.00
C 75.00 40.67 75.00 45.33 75.00 50.00
M 142.00 78.00 
C 138.79 78.47 138.05 77.59 136.00 76.00
C 132.87 73.58 131.97 70.73 134.00 67.00
C 135.08 64.55 136.62 64.28 139.00 64.00
C 148.70 62.88 151.29 76.63 142.00 78.00
M 176.00 80.00 
C 177.89 80.57 179.06 81.06 180.00 83.00
C 181.97 87.04 179.49 89.48 176.00 91.00
C 175.21 91.35 175.30 91.97 174.00 92.00
C 165.16 92.23 167.18 77.34 176.00 80.00
M 196.00 106.00 
C 197.44 106.52 198.34 106.27 199.00 108.00
C 199.87 110.28 198.64 113.68 197.00 115.00
C 193.91 117.25 189.44 114.95 189.00 111.00
C 188.38 105.52 192.16 104.61 196.00 106.00
M 160.00 198.00 
C 156.63 206.81 141.67 203.41 132.33 205.33 C 122.99 207.25 111.42 205.13 101.00 205.00 C 90.58 204.88 78.96 203.31 69.00 201.00
C 95.91 190.25 130.58 196.02 160.00 198.00 Z"/>
</g>
<g fill="None" fill-opacity="0.0" stroke="#22E6EA" stroke-opacity="1.00" stroke-width="0.3"><path d="
M 53.00 50.00 
C 53.82 46.66 52.95 39.56 56.00 38.00
C 53.16 42.69 60.71 43.92 61.00 48.00
C 65.96 49.14 69.70 46.24 74.00 45.00
C 74.39 48.05 70.56 48.75 75.00 50.00
C 75.00 45.33 75.00 40.67 75.00 36.00
C 68.08 35.41 60.51 37.23 54.00 35.00
C 51.82 39.52 53.60 45.06 53.00 50.00 Z"/>
</g>
<g fill="None" fill-opacity="0.0" stroke="#1ECAD6" stroke-opacity="1.00" stroke-width="0.3"><path d="
M 53.00 50.00 
C 53.00 51.67 53.00 53.33 53.00 55.00
C 51.35 55.15 49.64 54.80 48.00 55.00
C 53.93 55.57 60.20 60.56 67.00 59.00 C 73.80 57.44 78.58 57.43 85.00 56.00
C 85.08 55.51 85.00 55.00 85.00 55.00
C 81.67 55.00 78.33 55.00 75.00 55.00
C 74.85 53.35 75.20 51.64 75.00 50.00
C 70.56 48.75 74.39 48.05 74.00 45.00
C 69.70 46.24 65.96 49.14 61.00 48.00
C 60.71 43.92 53.16 42.69 56.00 38.00
C 52.95 39.56 53.82 46.66 53.00 50.00 Z"/>
</g>
<g fill="None" fill-opacity="0.0" stroke="#C22622" stroke-opacity="1.00" stroke-width="0.3"><path d="
M 129.00 58.00 
C 130.07 60.92 128.07 66.72 128.00 70.00
C 134.20 60.61 142.38 51.65 151.00 44.00
C 143.12 47.13 134.44 51.01 129.00 58.00 Z"/>
</g>
<g fill="None" fill-opacity="0.0" stroke="#DD9C9C" stroke-opacity="1.00" stroke-width="0.3"><path d="
M 86.00 52.00 
C 86.65 51.77 87.27 53.43 88.00 53.00
C 88.00 51.67 88.00 50.33 88.00 49.00
C 86.28 49.10 86.39 50.97 86.00 52.00 Z"/>
</g>
<g fill="None" fill-opacity="0.0" stroke="#EE1A11" stroke-opacity="1.00" stroke-width="0.3"><path d="
M 85.00 55.00 
C 85.00 55.00 85.08 55.51 85.00 56.00
C 84.29 60.37 81.93 65.05 81.00 69.00
C 80.39 71.59 80.45 74.37 80.00 77.00
C 76.43 97.73 80.42 119.11 92.00 136.00
C 101.37 137.49 110.62 139.51 120.00 141.00
C 116.32 138.99 112.12 128.46 111.00 125.00
C 110.46 124.16 106.60 118.86 108.00 115.00
C 105.12 119.45 102.64 115.10 102.00 110.00
C 101.07 112.29 101.60 114.42 102.00 117.00
C 98.74 117.60 96.09 116.17 93.00 116.00
C 95.44 113.38 92.63 108.06 91.02 101.97 C 89.41 95.88 87.21 86.47 87.00 79.00 C 86.79 71.53 83.89 61.70 88.00 55.00
C 88.16 54.55 87.98 53.50 88.00 53.00
C 87.27 53.43 86.65 51.77 86.00 52.00
C 85.63 52.98 85.37 54.00 85.00 55.00 Z"/>
</g>
<g fill="None" fill-opacity="0.0" stroke="#E92017" stroke-opacity="1.00" stroke-width="0.3"><path d="
M 99.00 54.00 
C 96.78 54.00 101.14 66.16 102.00 68.00
C 103.28 68.28 105.50 67.24 106.00 69.00
C 119.27 67.51 111.36 44.58 99.00 54.00 Z"/>
</g>
<g fill="None" fill-opacity="0.0" stroke="#AA2621" stroke-opacity="1.00" stroke-width="0.3"><path d="
M 97.00 55.00 
C 96.39 55.73 96.36 58.05 96.00 59.00
C 95.62 62.54 97.47 63.99 98.00 67.00
C 99.59 68.52 103.87 69.24 106.00 69.00
C 105.50 67.24 103.28 68.28 102.00 68.00
C 101.14 66.16 96.78 54.00 99.00 54.00
C 98.74 54.20 97.36 54.92 97.00 55.00 Z"/>
</g>
<g fill="None" fill-opacity="0.0" stroke="#16A7BB" stroke-opacity="1.00" stroke-width="0.3"><path d="
M 31.00 56.00 
C 31.26 55.75 32.00 56.00 32.00 56.00
C 34.67 56.00 37.33 56.00 40.00 56.00
C 41.66 64.83 49.83 65.73 57.07 68.93 C 64.32 72.13 76.34 66.98 81.00 69.00
C 81.93 65.05 84.29 60.37 85.00 56.00
C 78.58 57.43 73.80 57.44 67.00 59.00 C 60.20 60.56 53.93 55.57 48.00 55.00
C 44.39 54.65 33.38 53.53 31.00 56.00 Z"/>
</g>
<g fill="None" fill-opacity="0.0" stroke="#D61409" stroke-opacity="1.00" stroke-width="0.3"><path d="
M 111.00 125.00 
C 109.46 120.27 109.00 115.17 109.00 110.00
C 109.00 91.13 117.41 76.40 127.00 61.00
C 127.08 60.88 128.22 59.08 128.00 59.00
C 122.90 62.97 118.78 67.92 115.00 73.00
C 113.14 75.51 110.71 78.46 108.00 80.00
C 102.65 83.04 98.63 81.83 95.00 77.00
C 93.86 75.49 92.97 73.79 92.00 72.00
C 90.60 69.41 89.14 67.34 89.00 64.00
C 88.98 63.50 89.06 62.49 89.00 62.00
C 88.71 59.58 87.82 57.56 88.00 55.00
C 83.89 61.70 86.79 71.53 87.00 79.00 C 87.21 86.47 89.41 95.88 91.02 101.97 C 92.63 108.06 95.44 113.38 93.00 116.00
C 96.09 116.17 98.74 117.60 102.00 117.00
C 101.60 114.42 101.07 112.29 102.00 110.00
C 102.64 115.10 105.12 119.45 108.00 115.00
C 106.60 118.86 110.46 124.16 111.00 125.00 Z"/>
</g>
<g fill="None" fill-opacity="0.0" stroke="#2D9BA9" stroke-opacity="1.00" stroke-width="0.3"><path d="
M 89.00 62.00 
C 90.09 56.56 92.76 59.25 92.00 64.00
C 95.11 64.45 94.07 59.97 96.00 59.00
C 96.36 58.05 96.39 55.73 97.00 55.00
C 95.22 55.38 89.63 55.73 88.00 55.00
C 87.82 57.56 88.71 59.58 89.00 62.00 Z"/>
</g>
<g fill="None" fill-opacity="0.0" stroke="#187E9A" stroke-opacity="1.00" stroke-width="0.3"><path d="
M 53.00 77.00 
C 53.35 77.05 53.82 77.67 54.00 78.00
C 55.87 81.49 55.76 84.75 61.00 84.00 C 66.24 83.24 69.68 83.32 73.00 86.00
C 72.86 81.34 73.16 78.78 75.00 84.00
C 75.00 82.25 75.72 78.56 75.00 77.00
C 67.61 76.41 54.86 75.44 48.90 72.10 C 42.94 68.76 32.46 65.15 32.00 56.00
C 32.00 56.00 31.26 55.75 31.00 56.00
C 28.68 62.01 30.66 70.17 30.00 77.00
C 37.55 77.81 45.49 75.92 53.00 77.00 Z"/>
</g>
<g fill="None" fill-opacity="0.0" stroke="#0D8FA9" stroke-opacity="1.00" stroke-width="0.3"><path d="
M 75.00 77.00 
C 76.66 77.13 78.34 76.90 80.00 77.00
C 80.45 74.37 80.39 71.59 81.00 69.00
C 76.34 66.98 64.32 72.13 57.07 68.93 C 49.83 65.73 41.66 64.83 40.00 56.00
C 37.33 56.00 34.67 56.00 32.00 56.00
C 32.46 65.15 42.94 68.76 48.90 72.10 C 54.86 75.44 67.61 76.41 75.00 77.00 Z"/>
</g>
<g fill="None" fill-opacity="0.0" stroke="#1E7B96" stroke-opacity="1.00" stroke-width="0.3"><path d="
M 89.00 62.00 
C 89.06 62.49 88.98 63.50 89.00 64.00
C 90.15 66.41 90.93 69.33 92.00 72.00
C 92.97 73.79 93.86 75.49 95.00 77.00
C 96.00 77.00 97.00 77.00 98.00 77.00
C 97.57 73.74 98.57 70.23 98.00 67.00
C 97.47 63.99 95.62 62.54 96.00 59.00
C 94.07 59.97 95.11 64.45 92.00 64.00
C 92.76 59.25 90.09 56.56 89.00 62.00 Z"/>
</g>
<g fill="None" fill-opacity="0.0" stroke="#F68E22" stroke-opacity="1.00" stroke-width="0.3"><path d="
M 128.00 59.00 
C 128.22 59.08 127.08 60.88 127.00 61.00
C 125.41 70.72 119.77 81.39 120.00 93.00
C 120.05 95.33 119.96 97.67 120.00 100.00
C 124.26 100.61 127.92 99.17 132.00 99.00
C 128.03 96.88 129.33 96.82 133.00 96.00
C 134.25 98.45 135.78 100.35 138.00 102.00
C 143.04 93.23 149.88 86.04 158.00 80.00
C 160.83 77.90 163.67 74.66 167.00 73.00
C 167.80 72.60 168.61 71.63 169.00 73.00
C 169.16 73.56 167.36 76.43 167.00 77.00
C 171.70 73.94 176.70 71.70 182.00 70.00
C 167.17 67.58 152.85 79.36 140.22 86.22 C 127.59 93.08 127.87 76.66 128.00 70.00
C 128.07 66.72 130.07 60.92 129.00 58.00
C 128.79 58.27 128.04 59.01 128.00 59.00 Z"/>
</g>
<g fill="None" fill-opacity="0.0" stroke="#FAC00D" stroke-opacity="1.00" stroke-width="0.3"><path d="
M 109.00 110.00 
C 109.16 111.05 110.18 114.11 111.00 115.00
C 111.87 112.22 114.98 111.50 114.00 108.00
C 117.62 107.13 115.85 112.51 119.00 112.00
C 118.07 105.90 118.37 98.72 120.00 93.00
C 119.77 81.39 125.41 70.72 127.00 61.00
C 117.41 76.40 109.00 91.13 109.00 110.00 Z"/>
</g>
<g fill="None" fill-opacity="0.0" stroke="#8D2535" stroke-opacity="1.00" stroke-width="0.3"><path d="
M 92.00 72.00 
C 90.93 69.33 90.15 66.41 89.00 64.00
C 89.14 67.34 90.60 69.41 92.00 72.00 Z"/>
</g>
<g fill="None" fill-opacity="0.0" stroke="#FA9521" stroke-opacity="1.00" stroke-width="0.3"><path d="
M 134.00 67.00 
C 135.48 63.63 135.41 75.05 136.00 76.00
C 138.05 77.59 138.79 78.47 142.00 78.00
C 145.27 77.30 142.28 74.87 140.00 76.00
C 141.05 71.84 141.25 68.06 139.00 64.00
C 136.62 64.28 135.08 64.55 134.00 67.00 Z"/>
</g>
<g fill="None" fill-opacity="0.0" stroke="#F9C63A" stroke-opacity="1.00" stroke-width="0.3"><path d="
M 142.00 78.00 
C 151.29 76.63 148.70 62.88 139.00 64.00
C 141.25 68.06 141.05 71.84 140.00 76.00
C 142.28 74.87 145.27 77.30 142.00 78.00 Z"/>
</g>
<g fill="None" fill-opacity="0.0" stroke="#F47E3D" stroke-opacity="1.00" stroke-width="0.3"><path d="
M 134.00 67.00 
C 131.97 70.73 132.87 73.58 136.00 76.00
C 135.41 75.05 135.48 63.63 134.00 67.00 Z"/>
</g>
<g fill="None" fill-opacity="0.0" stroke="#2EB4EA" stroke-opacity="1.00" stroke-width="0.3"><path d="
M 167.00 73.00 
C 163.30 75.50 161.66 78.31 158.00 80.00
C 149.88 86.04 143.04 93.23 138.00 102.00
C 136.33 104.90 134.87 107.73 134.00 111.00
C 136.65 111.38 136.54 113.61 138.00 115.00
C 137.05 103.34 139.52 115.71 143.00 109.00
C 142.58 118.04 139.88 126.55 141.00 136.00
C 141.00 137.00 141.00 138.00 141.00 139.00
C 140.97 146.26 144.59 156.50 149.00 162.00
C 146.10 146.46 143.84 131.67 154.00 118.00
C 155.43 116.08 157.30 113.56 159.00 112.00
C 157.95 112.63 157.13 113.58 156.00 114.00
C 156.89 110.86 154.71 108.79 152.00 108.00
C 151.10 110.22 150.01 113.61 150.00 109.00
C 148.50 113.07 148.17 109.18 146.00 112.00
C 144.89 105.68 147.58 98.46 152.00 94.00
C 153.93 91.27 155.99 87.73 158.00 85.00
C 159.28 83.26 161.94 80.56 162.75 78.75 C 163.57 76.95 168.95 74.35 169.00 73.00
C 168.61 71.63 167.80 72.60 167.00 73.00 Z"/>
</g>
<g fill="None" fill-opacity="0.0" stroke="#E89190" stroke-opacity="1.00" stroke-width="0.3"><path d="
M 108.00 80.00 
C 110.71 78.46 113.14 75.51 115.00 73.00
C 113.45 74.78 109.95 78.69 108.00 80.00 Z"/>
</g>
<g fill="None" fill-opacity="0.0" stroke="#5DC4C3" stroke-opacity="1.00" stroke-width="0.3"><path d="
M 158.00 80.00 
C 161.66 78.31 163.30 75.50 167.00 73.00
C 163.67 74.66 160.83 77.90 158.00 80.00 Z"/>
</g>
<g fill="None" fill-opacity="0.0" stroke="#295EBA" stroke-opacity="1.00" stroke-width="0.3"><path d="
M 158.00 85.00 
C 157.75 86.28 158.75 87.72 160.00 88.00
C 158.62 84.44 160.70 83.53 162.00 87.00
C 163.10 83.06 164.96 80.28 167.00 77.00
C 167.36 76.43 169.16 73.56 169.00 73.00
C 168.95 74.35 163.57 76.95 162.75 78.75 C 161.94 80.56 159.28 83.26 158.00 85.00 Z"/>
</g>
<g fill="None" fill-opacity="0.0" stroke="#7B9EB2" stroke-opacity="1.00" stroke-width="0.3"><path d="
M 53.00 108.00 
C 53.00 107.96 54.00 108.00 54.00 108.00
C 53.72 105.06 54.00 101.95 54.00 99.00
C 54.00 98.00 54.00 97.00 54.00 96.00
C 54.00 90.20 54.83 83.73 54.00 78.00
C 53.82 77.67 53.35 77.05 53.00 77.00
C 50.32 85.37 53.00 99.14 53.00 108.00 Z"/>
</g>
<g fill="None" fill-opacity="0.0" stroke="#F9F9F7" stroke-opacity="1.00" stroke-width="0.3"><path d="
M 75.00 84.00 
C 75.00 85.33 75.00 86.67 75.00 88.00
C 75.00 91.67 75.00 95.33 75.00 99.00
C 75.00 104.67 75.00 110.33 75.00 116.00
C 75.00 120.16 77.09 131.56 75.00 135.00
C 80.32 133.83 86.94 135.19 92.00 136.00
C 80.42 119.11 76.43 97.73 80.00 77.00
C 78.34 76.90 76.66 77.13 75.00 77.00
C 75.72 78.56 75.00 82.25 75.00 84.00 Z"/>
</g>
<g fill="None" fill-opacity="0.0" stroke="#0F668B" stroke-opacity="1.00" stroke-width="0.3"><path d="
M 54.00 96.00 
C 54.19 95.24 56.06 94.17 56.00 93.00
C 61.65 95.13 69.96 92.24 74.00 95.00
C 74.52 92.81 72.86 89.38 75.00 88.00
C 75.00 86.67 75.00 85.33 75.00 84.00
C 73.16 78.78 72.86 81.34 73.00 86.00
C 69.68 83.32 66.24 83.24 61.00 84.00 C 55.76 84.75 55.87 81.49 54.00 78.00
C 54.83 83.73 54.00 90.20 54.00 96.00 Z"/>
</g>
<g fill="None" fill-opacity="0.0" stroke="#3EC0EC" stroke-opacity="1.00" stroke-width="0.3"><path d="
M 174.00 92.00 
C 170.43 90.28 177.80 82.96 176.00 80.00
C 167.18 77.34 165.16 92.23 174.00 92.00 Z"/>
</g>
<g fill="None" fill-opacity="0.0" stroke="#3094D9" stroke-opacity="1.00" stroke-width="0.3"><path d="
M 174.00 92.00 
C 175.30 91.97 175.21 91.35 176.00 91.00
C 176.69 89.79 176.92 79.91 180.00 83.00
C 179.06 81.06 177.89 80.57 176.00 80.00
C 177.80 82.96 170.43 90.28 174.00 92.00 Z"/>
</g>
<g fill="None" fill-opacity="0.0" stroke="#2867C6" stroke-opacity="1.00" stroke-width="0.3"><path d="
M 176.00 91.00 
C 179.49 89.48 181.97 87.04 180.00 83.00
C 176.92 79.91 176.69 89.79 176.00 91.00 Z"/>
</g>
<g fill="None" fill-opacity="0.0" stroke="#237CD3" stroke-opacity="1.00" stroke-width="0.3"><path d="
M 158.00 85.00 
C 155.99 87.73 153.93 91.27 152.00 94.00
C 150.35 99.57 167.16 103.08 173.00 103.00
C 175.64 101.76 182.50 101.10 185.01 100.01 C 187.52 98.91 195.96 96.73 194.00 100.00
C 198.22 97.80 204.18 100.39 208.00 98.00
C 199.00 96.10 188.17 94.65 179.01 97.01 C 169.85 99.36 158.67 98.94 162.00 87.00
C 160.70 83.53 158.62 84.44 160.00 88.00
C 158.75 87.72 157.75 86.28 158.00 85.00 Z"/>
</g>
<g fill="None" fill-opacity="0.0" stroke="#12527B" stroke-opacity="1.00" stroke-width="0.3"><path d="
M 54.00 96.00 
C 54.00 97.00 54.00 98.00 54.00 99.00
C 54.09 99.50 55.83 100.86 55.00 102.00
C 60.57 100.25 68.64 101.05 73.00 104.00
C 72.86 102.19 73.44 99.92 75.00 99.00
C 75.00 95.33 75.00 91.67 75.00 88.00
C 72.86 89.38 74.52 92.81 74.00 95.00
C 69.96 92.24 61.65 95.13 56.00 93.00
C 56.06 94.17 54.19 95.24 54.00 96.00 Z"/>
</g>
<g fill="None" fill-opacity="0.0" stroke="#F9A10F" stroke-opacity="1.00" stroke-width="0.3"><path d="
M 109.00 110.00 
C 109.00 115.17 109.46 120.27 111.00 125.00
C 112.12 128.46 116.32 138.99 120.00 141.00
C 123.22 141.51 126.30 141.82 129.00 143.00
C 129.42 143.18 130.00 143.00 130.00 143.00
C 125.94 136.39 120.55 127.85 124.00 120.00
C 125.27 122.19 126.56 126.08 130.00 124.00
C 130.01 122.39 129.41 119.57 132.00 120.00
C 132.16 118.74 132.76 118.78 133.00 118.00
C 133.16 115.58 133.38 113.32 134.00 111.00
C 134.87 107.73 136.33 104.90 138.00 102.00
C 135.78 100.35 134.25 98.45 133.00 96.00
C 129.33 96.82 128.03 96.88 132.00 99.00
C 127.92 99.17 124.26 100.61 120.00 100.00
C 119.96 97.67 120.05 95.33 120.00 93.00
C 118.37 98.72 118.07 105.90 119.00 112.00
C 115.85 112.51 117.62 107.13 114.00 108.00
C 114.98 111.50 111.87 112.22 111.00 115.00
C 110.18 114.11 109.16 111.05 109.00 110.00 Z"/>
</g>
<g fill="None" fill-opacity="0.0" stroke="#2496DE" stroke-opacity="1.00" stroke-width="0.3"><path d="
M 159.00 112.00 
C 159.85 111.22 161.09 110.63 162.00 110.00
C 165.15 107.82 169.16 106.96 172.00 105.00
C 172.35 104.76 172.76 103.11 173.00 103.00
C 167.16 103.08 150.35 99.57 152.00 94.00
C 147.58 98.46 144.89 105.68 146.00 112.00
C 148.17 109.18 148.50 113.07 150.00 109.00
C 150.01 113.61 151.10 110.22 152.00 108.00
C 154.71 108.79 156.89 110.86 156.00 114.00
C 157.13 113.58 157.95 112.63 159.00 112.00 Z"/>
</g>
<g fill="None" fill-opacity="0.0" stroke="#1DA338" stroke-opacity="1.00" stroke-width="0.3"><path d="
M 173.00 103.00 
C 172.76 103.11 172.35 104.76 172.00 105.00
C 174.63 105.14 174.66 107.00 177.00 107.00
C 179.90 104.84 190.37 98.08 193.00 100.00
C 193.00 100.00 193.56 100.16 194.00 100.00
C 195.96 96.73 187.52 98.91 185.01 100.01 C 182.50 101.10 175.64 101.76 173.00 103.00 Z"/>
</g>
<g fill="None" fill-opacity="0.0" stroke="#163A68" stroke-opacity="1.00" stroke-width="0.3"><path d="
M 54.00 108.00 
C 54.32 111.27 55.84 116.02 55.00 120.00
C 54.30 112.69 74.72 111.80 73.00 120.00
C 74.98 119.53 72.89 116.40 75.00 116.00
C 75.00 110.33 75.00 104.67 75.00 99.00
C 73.44 99.92 72.86 102.19 73.00 104.00
C 68.64 101.05 60.57 100.25 55.00 102.00
C 55.83 100.86 54.09 99.50 54.00 99.00
C 54.00 101.95 53.72 105.06 54.00 108.00 Z"/>
</g>
<g fill="None" fill-opacity="0.0" stroke="#81E042" stroke-opacity="1.00" stroke-width="0.3"><path d="
M 177.00 107.00 
C 172.52 110.33 168.59 114.49 165.00 119.00
C 167.61 121.61 175.16 123.21 176.00 129.00
C 177.54 129.37 178.40 127.57 180.00 128.00
C 192.03 125.79 205.12 126.60 216.00 131.00
C 208.47 123.01 201.36 121.95 189.69 119.31 C 178.03 116.66 183.92 104.44 193.00 100.00
C 190.37 98.08 179.90 104.84 177.00 107.00 Z"/>
</g>
<g fill="None" fill-opacity="0.0" stroke="#49C528" stroke-opacity="1.00" stroke-width="0.3"><path d="
M 162.00 110.00 
C 159.52 112.16 156.11 115.58 154.00 118.00
C 143.84 131.67 146.10 146.46 149.00 162.00
C 149.09 162.48 149.00 163.00 149.00 163.00
C 149.50 163.00 150.00 163.00 150.00 163.00
C 150.00 158.00 150.00 153.00 150.00 148.00
C 150.48 152.06 153.83 152.14 154.00 148.00
C 155.44 152.07 156.91 146.49 158.00 148.00
C 162.30 141.20 172.14 130.90 180.00 128.00
C 178.40 127.57 177.54 129.37 176.00 129.00
C 175.16 123.21 167.61 121.61 165.00 119.00
C 168.59 114.49 172.52 110.33 177.00 107.00
C 174.66 107.00 174.63 105.14 172.00 105.00
C 169.16 106.96 165.15 107.82 162.00 110.00 Z"/>
</g>
<g fill="None" fill-opacity="0.0" stroke="#AAEF67" stroke-opacity="1.00" stroke-width="0.3"><path d="
M 189.00 111.00 
C 192.59 111.08 192.15 105.85 196.00 106.00
C 192.16 104.61 188.38 105.52 189.00 111.00 Z"/>
</g>
<g fill="None" fill-opacity="0.0" stroke="#5ACA34" stroke-opacity="1.00" stroke-width="0.3"><path d="
M 189.00 111.00 
C 189.44 114.95 193.91 117.25 197.00 115.00
C 196.45 115.45 193.96 115.09 194.00 114.00
C 197.89 114.35 197.40 109.70 199.00 108.00
C 198.34 106.27 197.44 106.52 196.00 106.00
C 192.15 105.85 192.59 111.08 189.00 111.00 Z"/>
</g>
<g fill="None" fill-opacity="0.0" stroke="#7D809B" stroke-opacity="1.00" stroke-width="0.3"><path d="
M 53.00 142.00 
C 53.44 141.84 54.00 142.00 54.00 142.00
C 54.25 141.75 54.00 141.00 54.00 141.00
C 54.00 130.15 54.98 118.80 54.00 108.00
C 54.00 108.00 53.00 107.96 53.00 108.00
C 53.00 119.18 51.99 130.87 53.00 142.00 Z"/>
</g>
<g fill="None" fill-opacity="0.0" stroke="#17184E" stroke-opacity="1.00" stroke-width="0.3"><path d="
M 54.00 141.00 
C 60.09 139.25 65.67 137.07 72.00 136.00
C 73.12 135.81 74.34 135.14 75.00 135.00
C 77.09 131.56 75.00 120.16 75.00 116.00
C 72.89 116.40 74.98 119.53 73.00 120.00
C 74.72 111.80 54.30 112.69 55.00 120.00
C 55.84 116.02 54.32 111.27 54.00 108.00
C 54.98 118.80 54.00 130.15 54.00 141.00 Z"/>
</g>
<g fill="None" fill-opacity="0.0" stroke="#2595DD" stroke-opacity="1.00" stroke-width="0.3"><path d="
M 134.00 111.00 
C 133.38 113.32 133.16 115.58 133.00 118.00
C 132.75 121.63 133.00 125.36 133.00 129.00
C 133.40 130.07 134.03 132.17 135.00 133.00
C 134.72 130.28 137.18 127.73 140.00 128.00
C 140.56 130.52 138.81 134.30 141.00 136.00
C 139.88 126.55 142.58 118.04 143.00 109.00
C 139.52 115.71 137.05 103.34 138.00 115.00
C 136.54 113.61 136.65 111.38 134.00 111.00 Z"/>
</g>
<g fill="None" fill-opacity="0.0" stroke="#279924" stroke-opacity="1.00" stroke-width="0.3"><path d="
M 197.00 115.00 
C 198.64 113.68 199.87 110.28 199.00 108.00
C 197.40 109.70 197.89 114.35 194.00 114.00
C 193.96 115.09 196.45 115.45 197.00 115.00 Z"/>
</g>
<g fill="None" fill-opacity="0.0" stroke="#31B07C" stroke-opacity="1.00" stroke-width="0.3"><path d="
M 159.00 112.00 
C 157.30 113.56 155.43 116.08 154.00 118.00
C 156.11 115.58 159.52 112.16 162.00 110.00
C 161.09 110.63 159.85 111.22 159.00 112.00 Z"/>
</g>
<g fill="None" fill-opacity="0.0" stroke="#7A9B90" stroke-opacity="1.00" stroke-width="0.3"><path d="
M 132.00 120.00 
C 131.56 123.54 132.50 127.20 133.00 130.00
C 132.99 129.50 133.00 129.00 133.00 129.00
C 133.00 125.36 132.75 121.63 133.00 118.00
C 132.76 118.78 132.16 118.74 132.00 120.00 Z"/>
</g>
<g fill="None" fill-opacity="0.0" stroke="#F2BB1D" stroke-opacity="1.00" stroke-width="0.3"><path d="
M 130.00 143.00 
C 130.35 143.23 131.52 142.91 132.00 143.00
C 132.85 143.16 133.87 144.17 134.00 145.00
C 134.07 145.49 134.00 146.00 134.00 146.00
C 133.85 146.40 133.12 148.88 133.00 149.00
C 136.51 149.29 137.10 154.85 139.75 156.25 C 142.41 157.65 145.23 160.47 147.00 163.00
C 147.50 163.00 148.00 163.00 148.00 163.00
C 143.29 154.18 138.01 147.65 135.00 138.00
C 134.11 135.14 133.07 133.18 133.00 130.00
C 132.50 127.20 131.56 123.54 132.00 120.00
C 129.41 119.57 130.01 122.39 130.00 124.00
C 126.56 126.08 125.27 122.19 124.00 120.00
C 120.55 127.85 125.94 136.39 130.00 143.00 Z"/>
</g>
<g fill="None" fill-opacity="0.0" stroke="#247BD2" stroke-opacity="1.00" stroke-width="0.3"><path d="
M 133.00 129.00 
C 133.00 129.00 132.99 129.50 133.00 130.00
C 133.07 133.18 134.11 135.14 135.00 138.00
C 134.67 137.49 139.26 138.08 137.00 141.00
C 138.25 139.99 138.92 137.13 141.00 139.00
C 141.00 138.00 141.00 137.00 141.00 136.00
C 138.81 134.30 140.56 130.52 140.00 128.00
C 137.18 127.73 134.72 130.28 135.00 133.00
C 134.03 132.17 133.40 130.07 133.00 129.00 Z"/>
</g>
<g fill="None" fill-opacity="0.0" stroke="#333333" stroke-opacity="1.00" stroke-width="0.3"><path d="
M 151.00 164.00 
C 151.17 165.31 150.87 166.68 151.00 168.00
C 148.86 167.44 148.89 165.46 150.00 164.00
C 150.20 163.60 150.00 163.00 150.00 163.00
C 150.00 163.00 149.50 163.00 149.00 163.00
C 148.50 163.00 148.00 163.00 148.00 163.00
C 148.00 163.00 147.50 163.00 147.00 163.00
C 146.50 163.00 146.00 163.00 146.00 163.00
C 145.50 163.00 145.00 163.00 145.00 163.00
C 142.68 163.00 140.32 162.89 138.00 163.00
C 125.85 163.56 103.53 160.30 96.00 151.00
C 99.28 150.57 102.47 149.52 106.00 150.00
C 107.84 149.81 110.25 149.87 112.00 150.00
C 117.26 150.40 122.72 150.00 128.00 150.00
C 128.50 150.00 129.00 150.00 129.00 150.00
C 127.74 148.42 128.58 145.00 129.00 143.00
C 126.30 141.82 123.22 141.51 120.00 141.00
C 110.62 139.51 101.37 137.49 92.00 136.00
C 86.94 135.19 80.32 133.83 75.00 135.00
C 74.34 135.14 73.12 135.81 72.00 136.00
C 66.48 137.99 60.16 140.85 54.00 142.00
C 54.00 142.00 53.44 141.84 53.00 142.00
C 39.09 148.69 34.89 164.54 28.00 177.00
C 58.03 163.84 87.45 182.71 115.78 188.22 C 144.10 193.73 172.36 177.64 193.00 160.00
C 196.59 156.41 200.46 152.54 204.00 149.00
C 206.85 145.67 218.55 134.45 210.00 133.00 C 201.45 131.55 195.89 138.75 190.75 143.75 C 185.61 148.75 178.67 151.53 172.70 155.70 C 166.72 159.86 158.49 163.80 151.00 164.00 Z"/>
</g>
<g fill="None" fill-opacity="0.0" stroke="#2C283B" stroke-opacity="1.00" stroke-width="0.3"><path d="
M 54.00 141.00 
C 54.00 141.00 54.25 141.75 54.00 142.00
C 60.16 140.85 66.48 137.99 72.00 136.00
C 65.67 137.07 60.09 139.25 54.00 141.00 Z"/>
</g>
<g fill="None" fill-opacity="0.0" stroke="#2261C1" stroke-opacity="1.00" stroke-width="0.3"><path d="
M 135.00 138.00 
C 138.01 147.65 143.29 154.18 148.00 163.00
C 148.00 163.00 148.50 163.00 149.00 163.00
C 149.00 163.00 149.09 162.48 149.00 162.00
C 144.59 156.50 140.97 146.26 141.00 139.00
C 138.92 137.13 138.25 139.99 137.00 141.00
C 139.26 138.08 134.67 137.49 135.00 138.00 Z"/>
</g>
<g fill="None" fill-opacity="0.0" stroke="#34381C" stroke-opacity="1.00" stroke-width="0.3"><path d="
M 129.00 150.00 
C 129.20 150.24 130.00 150.00 130.00 150.00
C 130.25 149.75 130.00 149.00 130.00 149.00
C 130.00 147.14 130.38 144.82 130.00 143.00
C 130.00 143.00 129.42 143.18 129.00 143.00
C 128.58 145.00 127.74 148.42 129.00 150.00 Z"/>
</g>
<g fill="None" fill-opacity="0.0" stroke="#2B243D" stroke-opacity="1.00" stroke-width="0.3"><path d="
M 130.00 149.00 
C 131.22 147.95 132.82 147.01 134.00 146.00
C 134.00 146.00 134.07 145.49 134.00 145.00
C 132.99 145.32 131.93 145.33 131.00 146.00
C 130.47 144.72 131.97 144.14 132.00 143.00
C 131.52 142.91 130.35 143.23 130.00 143.00
C 130.38 144.82 130.00 147.14 130.00 149.00 Z"/>
</g>
<g fill="None" fill-opacity="0.0" stroke="#494320" stroke-opacity="1.00" stroke-width="0.3"><path d="
M 134.00 145.00 
C 133.87 144.17 132.85 143.16 132.00 143.00
C 131.97 144.14 130.47 144.72 131.00 146.00
C 131.93 145.33 132.99 145.32 134.00 145.00 Z"/>
</g>
<g fill="None" fill-opacity="0.0" stroke="#644318" stroke-opacity="1.00" stroke-width="0.3"><path d="
M 130.00 149.00 
C 130.00 149.00 130.25 149.75 130.00 150.00
C 130.40 149.85 132.88 149.12 133.00 149.00
C 133.12 148.88 133.85 146.40 134.00 146.00
C 132.82 147.01 131.22 147.95 130.00 149.00 Z"/>
</g>
<g fill="None" fill-opacity="0.0" stroke="#2AA623" stroke-opacity="1.00" stroke-width="0.3"><path d="
M 150.00 163.00 
C 150.00 163.00 150.20 163.60 150.00 164.00
C 150.25 164.25 151.00 164.00 151.00 164.00
C 153.02 158.63 154.86 152.96 158.00 148.00
C 156.91 146.49 155.44 152.07 154.00 148.00
C 153.83 152.14 150.48 152.06 150.00 148.00
C 150.00 153.00 150.00 158.00 150.00 163.00 Z"/>
</g>
<g fill="None" fill-opacity="0.0" stroke="#0E2F1C" stroke-opacity="1.00" stroke-width="0.3"><path d="
M 106.00 150.00 
C 107.00 150.03 108.00 150.00 109.00 150.00
C 109.91 150.00 111.12 149.81 112.00 150.00
C 110.25 149.87 107.84 149.81 106.00 150.00 Z"/>
</g>
<g fill="None" fill-opacity="0.0" stroke="#F77F0E" stroke-opacity="1.00" stroke-width="0.3"><path d="
M 130.00 150.00 
C 130.00 150.00 129.20 150.24 129.00 150.00
C 133.50 156.91 141.84 157.58 146.00 163.00
C 146.00 163.00 146.50 163.00 147.00 163.00
C 145.23 160.47 142.41 157.65 139.75 156.25 C 137.10 154.85 136.51 149.29 133.00 149.00
C 132.88 149.12 130.40 149.85 130.00 150.00 Z"/>
</g>
<g fill="None" fill-opacity="0.0" stroke="#868686" stroke-opacity="1.00" stroke-width="0.3"><path d="
M 193.00 160.00 
C 196.89 156.67 200.63 152.94 204.00 149.00
C 200.46 152.54 196.59 156.41 193.00 160.00 Z"/>
</g>
<g fill="None" fill-opacity="0.0" stroke="#EFEDEB" stroke-opacity="1.00" stroke-width="0.3"><path d="
M 138.00 163.00 
C 127.04 161.63 118.46 154.00 109.00 150.00
C 108.00 150.00 107.00 150.03 106.00 150.00
C 102.47 149.52 99.28 150.57 96.00 151.00
C 103.53 160.30 125.85 163.56 138.00 163.00 Z"/>
</g>
<g fill="None" fill-opacity="0.0" stroke="#C01915" stroke-opacity="1.00" stroke-width="0.3"><path d="
M 138.00 163.00 
C 140.32 162.89 142.68 163.00 145.00 163.00
C 139.01 159.86 129.37 152.58 123.00 151.00
C 119.09 151.16 115.20 150.70 112.00 150.00
C 111.12 149.81 109.91 150.00 109.00 150.00
C 118.46 154.00 127.04 161.63 138.00 163.00 Z"/>
</g>
<g fill="None" fill-opacity="0.0" stroke="#6F2321" stroke-opacity="1.00" stroke-width="0.3"><path d="
M 123.00 151.00 
C 125.09 150.92 126.55 151.40 128.00 150.00
C 122.72 150.00 117.26 150.40 112.00 150.00
C 115.20 150.70 119.09 151.16 123.00 151.00 Z"/>
</g>
<g fill="None" fill-opacity="0.0" stroke="#F5310E" stroke-opacity="1.00" stroke-width="0.3"><path d="
M 123.00 151.00 
C 129.37 152.58 139.01 159.86 145.00 163.00
C 145.00 163.00 145.50 163.00 146.00 163.00
C 141.84 157.58 133.50 156.91 129.00 150.00
C 129.00 150.00 128.50 150.00 128.00 150.00
C 126.55 151.40 125.09 150.92 123.00 151.00 Z"/>
</g>
<g fill="None" fill-opacity="0.0" stroke="#2D2B42" stroke-opacity="1.00" stroke-width="0.3"><path d="
M 151.00 164.00 
C 151.00 164.00 150.25 164.25 150.00 164.00
C 148.89 165.46 148.86 167.44 151.00 168.00
C 150.87 166.68 151.17 165.31 151.00 164.00 Z"/>
</g>
<g fill="None" fill-opacity="0.0" stroke="#DADADA" stroke-opacity="1.00" stroke-width="0.3"><path d="
M 160.00 198.00 
C 130.58 196.02 95.91 190.25 69.00 201.00
C 78.96 203.31 90.58 204.88 101.00 205.00 C 111.42 205.13 122.99 207.25 132.33 205.33 C 141.67 203.41 156.63 206.81 160.00 198.00 Z"/>
</g>
<g fill="#FDFDFC" fill-opacity="1.00" stroke="None">
<path d="
M 0.00 219.00 
L 230.00 219.00
L 230.00 0.00
L 0.00 0.00
L 0.00 219.00
M 75.00 50.00 
C 75.20 51.64 74.85 53.35 75.00 55.00
C 78.33 55.00 81.67 55.00 85.00 55.00
C 85.37 54.00 85.63 52.98 86.00 52.00
C 86.39 50.97 86.28 49.10 88.00 49.00
C 88.00 50.33 88.00 51.67 88.00 53.00
C 87.98 53.50 88.16 54.55 88.00 55.00
C 89.63 55.73 95.22 55.38 97.00 55.00
C 97.36 54.92 98.74 54.20 99.00 54.00
C 111.36 44.58 119.27 67.51 106.00 69.00
C 103.87 69.24 99.59 68.52 98.00 67.00
C 98.57 70.23 97.57 73.74 98.00 77.00
C 97.00 77.00 96.00 77.00 95.00 77.00
C 98.63 81.83 102.65 83.04 108.00 80.00
C 109.95 78.69 113.45 74.78 115.00 73.00
C 118.78 67.92 122.90 62.97 128.00 59.00
C 128.04 59.01 128.79 58.27 129.00 58.00
C 134.44 51.01 143.12 47.13 151.00 44.00
C 142.38 51.65 134.20 60.61 128.00 70.00
C 127.87 76.66 127.59 93.08 140.22 86.22 C 152.85 79.36 167.17 67.58 182.00 70.00
C 176.70 71.70 171.70 73.94 167.00 77.00
C 164.96 80.28 163.10 83.06 162.00 87.00
C 158.67 98.94 169.85 99.36 179.01 97.01 C 188.17 94.65 199.00 96.10 208.00 98.00
C 204.18 100.39 198.22 97.80 194.00 100.00
C 193.56 100.16 193.00 100.00 193.00 100.00
C 183.92 104.44 178.03 116.66 189.69 119.31 C 201.36 121.95 208.47 123.01 216.00 131.00
C 205.12 126.60 192.03 125.79 180.00 128.00
C 172.14 130.90 162.30 141.20 158.00 148.00
C 154.86 152.96 153.02 158.63 151.00 164.00
C 158.49 163.80 166.72 159.86 172.70 155.70 C 178.67 151.53 185.61 148.75 190.75 143.75 C 195.89 138.75 201.45 131.55 210.00 133.00 C 218.55 134.45 206.85 145.67 204.00 149.00
C 200.63 152.94 196.89 156.67 193.00 160.00
C 172.36 177.64 144.10 193.73 115.78 188.22 C 87.45 182.71 58.03 163.84 28.00 177.00
C 34.89 164.54 39.09 148.69 53.00 142.00
C 51.99 130.87 53.00 119.18 53.00 108.00
C 53.00 99.14 50.32 85.37 53.00 77.00
C 45.49 75.92 37.55 77.81 30.00 77.00
C 30.66 70.17 28.68 62.01 31.00 56.00
C 33.38 53.53 44.39 54.65 48.00 55.00
C 49.64 54.80 51.35 55.15 53.00 55.00
C 53.00 53.33 53.00 51.67 53.00 50.00
C 53.60 45.06 51.82 39.52 54.00 35.00
C 60.51 37.23 68.08 35.41 75.00 36.00
C 75.00 40.67 75.00 45.33 75.00 50.00
M 142.00 78.00 
C 138.79 78.47 138.05 77.59 136.00 76.00
C 132.87 73.58 131.97 70.73 134.00 67.00
C 135.08 64.55 136.62 64.28 139.00 64.00
C 148.70 62.88 151.29 76.63 142.00 78.00
M 176.00 80.00 
C 177.89 80.57 179.06 81.06 180.00 83.00
C 181.97 87.04 179.49 89.48 176.00 91.00
C 175.21 91.35 175.30 91.97 174.00 92.00
C 165.16 92.23 167.18 77.34 176.00 80.00
M 196.00 106.00 
C 197.44 106.52 198.34 106.27 199.00 108.00
C 199.87 110.28 198.64 113.68 197.00 115.00
C 193.91 117.25 189.44 114.95 189.00 111.00
C 188.38 105.52 192.16 104.61 196.00 106.00
M 160.00 198.00 
C 156.63 206.81 141.67 203.41 132.33 205.33 C 122.99 207.25 111.42 205.13 101.00 205.00 C 90.58 204.88 78.96 203.31 69.00 201.00
C 95.91 190.25 130.58 196.02 160.00 198.00 Z"/>
</g>
<g fill="#22E6EA" fill-opacity="1.00" stroke="None">
<path d="
M 53.00 50.00 
C 53.82 46.66 52.95 39.56 56.00 38.00
C 53.16 42.69 60.71 43.92 61.00 48.00
C 65.96 49.14 69.70 46.24 74.00 45.00
C 74.39 48.05 70.56 48.75 75.00 50.00
C 75.00 45.33 75.00 40.67 75.00 36.00
C 68.08 35.41 60.51 37.23 54.00 35.00
C 51.82 39.52 53.60 45.06 53.00 50.00 Z"/>
</g>
<g fill="#1ECAD6" fill-opacity="1.00" stroke="None">
<path d="
M 53.00 50.00 
C 53.00 51.67 53.00 53.33 53.00 55.00
C 51.35 55.15 49.64 54.80 48.00 55.00
C 53.93 55.57 60.20 60.56 67.00 59.00 C 73.80 57.44 78.58 57.43 85.00 56.00
C 85.08 55.51 85.00 55.00 85.00 55.00
C 81.67 55.00 78.33 55.00 75.00 55.00
C 74.85 53.35 75.20 51.64 75.00 50.00
C 70.56 48.75 74.39 48.05 74.00 45.00
C 69.70 46.24 65.96 49.14 61.00 48.00
C 60.71 43.92 53.16 42.69 56.00 38.00
C 52.95 39.56 53.82 46.66 53.00 50.00 Z"/>
</g>
<g fill="#C22622" fill-opacity="1.00" stroke="None">
<path d="
M 129.00 58.00 
C 130.07 60.92 128.07 66.72 128.00 70.00
C 134.20 60.61 142.38 51.65 151.00 44.00
C 143.12 47.13 134.44 51.01 129.00 58.00 Z"/>
</g>
<g fill="#DD9C9C" fill-opacity="1.00" stroke="None">
<path d="
M 86.00 52.00 
C 86.65 51.77 87.27 53.43 88.00 53.00
C 88.00 51.67 88.00 50.33 88.00 49.00
C 86.28 49.10 86.39 50.97 86.00 52.00 Z"/>
</g>
<g fill="#EE1A11" fill-opacity="1.00" stroke="None">
<path d="
M 85.00 55.00 
C 85.00 55.00 85.08 55.51 85.00 56.00
C 84.29 60.37 81.93 65.05 81.00 69.00
C 80.39 71.59 80.45 74.37 80.00 77.00
C 76.43 97.73 80.42 119.11 92.00 136.00
C 101.37 137.49 110.62 139.51 120.00 141.00
C 116.32 138.99 112.12 128.46 111.00 125.00
C 110.46 124.16 106.60 118.86 108.00 115.00
C 105.12 119.45 102.64 115.10 102.00 110.00
C 101.07 112.29 101.60 114.42 102.00 117.00
C 98.74 117.60 96.09 116.17 93.00 116.00
C 95.44 113.38 92.63 108.06 91.02 101.97 C 89.41 95.88 87.21 86.47 87.00 79.00 C 86.79 71.53 83.89 61.70 88.00 55.00
C 88.16 54.55 87.98 53.50 88.00 53.00
C 87.27 53.43 86.65 51.77 86.00 52.00
C 85.63 52.98 85.37 54.00 85.00 55.00 Z"/>
</g>
<g fill="#E92017" fill-opacity="1.00" stroke="None">
<path d="
M 99.00 54.00 
C 96.78 54.00 101.14 66.16 102.00 68.00
C 103.28 68.28 105.50 67.24 106.00 69.00
C 119.27 67.51 111.36 44.58 99.00 54.00 Z"/>
</g>
<g fill="#AA2621" fill-opacity="1.00" stroke="None">
<path d="
M 97.00 55.00 
C 96.39 55.73 96.36 58.05 96.00 59.00
C 95.62 62.54 97.47 63.99 98.00 67.00
C 99.59 68.52 103.87 69.24 106.00 69.00
C 105.50 67.24 103.28 68.28 102.00 68.00
C 101.14 66.16 96.78 54.00 99.00 54.00
C 98.74 54.20 97.36 54.92 97.00 55.00 Z"/>
</g>
<g fill="#16A7BB" fill-opacity="1.00" stroke="None">
<path d="
M 31.00 56.00 
C 31.26 55.75 32.00 56.00 32.00 56.00
C 34.67 56.00 37.33 56.00 40.00 56.00
C 41.66 64.83 49.83 65.73 57.07 68.93 C 64.32 72.13 76.34 66.98 81.00 69.00
C 81.93 65.05 84.29 60.37 85.00 56.00
C 78.58 57.43 73.80 57.44 67.00 59.00 C 60.20 60.56 53.93 55.57 48.00 55.00
C 44.39 54.65 33.38 53.53 31.00 56.00 Z"/>
</g>
<g fill="#D61409" fill-opacity="1.00" stroke="None">
<path d="
M 111.00 125.00 
C 109.46 120.27 109.00 115.17 109.00 110.00
C 109.00 91.13 117.41 76.40 127.00 61.00
C 127.08 60.88 128.22 59.08 128.00 59.00
C 122.90 62.97 118.78 67.92 115.00 73.00
C 113.14 75.51 110.71 78.46 108.00 80.00
C 102.65 83.04 98.63 81.83 95.00 77.00
C 93.86 75.49 92.97 73.79 92.00 72.00
C 90.60 69.41 89.14 67.34 89.00 64.00
C 88.98 63.50 89.06 62.49 89.00 62.00
C 88.71 59.58 87.82 57.56 88.00 55.00
C 83.89 61.70 86.79 71.53 87.00 79.00 C 87.21 86.47 89.41 95.88 91.02 101.97 C 92.63 108.06 95.44 113.38 93.00 116.00
C 96.09 116.17 98.74 117.60 102.00 117.00
C 101.60 114.42 101.07 112.29 102.00 110.00
C 102.64 115.10 105.12 119.45 108.00 115.00
C 106.60 118.86 110.46 124.16 111.00 125.00 Z"/>
</g>
<g fill="#2D9BA9" fill-opacity="1.00" stroke="None">
<path d="
M 89.00 62.00 
C 90.09 56.56 92.76 59.25 92.00 64.00
C 95.11 64.45 94.07 59.97 96.00 59.00
C 96.36 58.05 96.39 55.73 97.00 55.00
C 95.22 55.38 89.63 55.73 88.00 55.00
C 87.82 57.56 88.71 59.58 89.00 62.00 Z"/>
</g>
<g fill="#187E9A" fill-opacity="1.00" stroke="None">
<path d="
M 53.00 77.00 
C 53.35 77.05 53.82 77.67 54.00 78.00
C 55.87 81.49 55.76 84.75 61.00 84.00 C 66.24 83.24 69.68 83.32 73.00 86.00
C 72.86 81.34 73.16 78.78 75.00 84.00
C 75.00 82.25 75.72 78.56 75.00 77.00
C 67.61 76.41 54.86 75.44 48.90 72.10 C 42.94 68.76 32.46 65.15 32.00 56.00
C 32.00 56.00 31.26 55.75 31.00 56.00
C 28.68 62.01 30.66 70.17 30.00 77.00
C 37.55 77.81 45.49 75.92 53.00 77.00 Z"/>
</g>
<g fill="#0D8FA9" fill-opacity="1.00" stroke="None">
<path d="
M 75.00 77.00 
C 76.66 77.13 78.34 76.90 80.00 77.00
C 80.45 74.37 80.39 71.59 81.00 69.00
C 76.34 66.98 64.32 72.13 57.07 68.93 C 49.83 65.73 41.66 64.83 40.00 56.00
C 37.33 56.00 34.67 56.00 32.00 56.00
C 32.46 65.15 42.94 68.76 48.90 72.10 C 54.86 75.44 67.61 76.41 75.00 77.00 Z"/>
</g>
<g fill="#1E7B96" fill-opacity="1.00" stroke="None">
<path d="
M 89.00 62.00 
C 89.06 62.49 88.98 63.50 89.00 64.00
C 90.15 66.41 90.93 69.33 92.00 72.00
C 92.97 73.79 93.86 75.49 95.00 77.00
C 96.00 77.00 97.00 77.00 98.00 77.00
C 97.57 73.74 98.57 70.23 98.00 67.00
C 97.47 63.99 95.62 62.54 96.00 59.00
C 94.07 59.97 95.11 64.45 92.00 64.00
C 92.76 59.25 90.09 56.56 89.00 62.00 Z"/>
</g>
<g fill="#F68E22" fill-opacity="1.00" stroke="None">
<path d="
M 128.00 59.00 
C 128.22 59.08 127.08 60.88 127.00 61.00
C 125.41 70.72 119.77 81.39 120.00 93.00
C 120.05 95.33 119.96 97.67 120.00 100.00
C 124.26 100.61 127.92 99.17 132.00 99.00
C 128.03 96.88 129.33 96.82 133.00 96.00
C 134.25 98.45 135.78 100.35 138.00 102.00
C 143.04 93.23 149.88 86.04 158.00 80.00
C 160.83 77.90 163.67 74.66 167.00 73.00
C 167.80 72.60 168.61 71.63 169.00 73.00
C 169.16 73.56 167.36 76.43 167.00 77.00
C 171.70 73.94 176.70 71.70 182.00 70.00
C 167.17 67.58 152.85 79.36 140.22 86.22 C 127.59 93.08 127.87 76.66 128.00 70.00
C 128.07 66.72 130.07 60.92 129.00 58.00
C 128.79 58.27 128.04 59.01 128.00 59.00 Z"/>
</g>
<g fill="#FAC00D" fill-opacity="1.00" stroke="None">
<path d="
M 109.00 110.00 
C 109.16 111.05 110.18 114.11 111.00 115.00
C 111.87 112.22 114.98 111.50 114.00 108.00
C 117.62 107.13 115.85 112.51 119.00 112.00
C 118.07 105.90 118.37 98.72 120.00 93.00
C 119.77 81.39 125.41 70.72 127.00 61.00
C 117.41 76.40 109.00 91.13 109.00 110.00 Z"/>
</g>
<g fill="#8D2535" fill-opacity="1.00" stroke="None">
<path d="
M 92.00 72.00 
C 90.93 69.33 90.15 66.41 89.00 64.00
C 89.14 67.34 90.60 69.41 92.00 72.00 Z"/>
</g>
<g fill="#FA9521" fill-opacity="1.00" stroke="None">
<path d="
M 134.00 67.00 
C 135.48 63.63 135.41 75.05 136.00 76.00
C 138.05 77.59 138.79 78.47 142.00 78.00
C 145.27 77.30 142.28 74.87 140.00 76.00
C 141.05 71.84 141.25 68.06 139.00 64.00
C 136.62 64.28 135.08 64.55 134.00 67.00 Z"/>
</g>
<g fill="#F9C63A" fill-opacity="1.00" stroke="None">
<path d="
M 142.00 78.00 
C 151.29 76.63 148.70 62.88 139.00 64.00
C 141.25 68.06 141.05 71.84 140.00 76.00
C 142.28 74.87 145.27 77.30 142.00 78.00 Z"/>
</g>
<g fill="#F47E3D" fill-opacity="1.00" stroke="None">
<path d="
M 134.00 67.00 
C 131.97 70.73 132.87 73.58 136.00 76.00
C 135.41 75.05 135.48 63.63 134.00 67.00 Z"/>
</g>
<g fill="#2EB4EA" fill-opacity="1.00" stroke="None">
<path d="
M 167.00 73.00 
C 163.30 75.50 161.66 78.31 158.00 80.00
C 149.88 86.04 143.04 93.23 138.00 102.00
C 136.33 104.90 134.87 107.73 134.00 111.00
C 136.65 111.38 136.54 113.61 138.00 115.00
C 137.05 103.34 139.52 115.71 143.00 109.00
C 142.58 118.04 139.88 126.55 141.00 136.00
C 141.00 137.00 141.00 138.00 141.00 139.00
C 140.97 146.26 144.59 156.50 149.00 162.00
C 146.10 146.46 143.84 131.67 154.00 118.00
C 155.43 116.08 157.30 113.56 159.00 112.00
C 157.95 112.63 157.13 113.58 156.00 114.00
C 156.89 110.86 154.71 108.79 152.00 108.00
C 151.10 110.22 150.01 113.61 150.00 109.00
C 148.50 113.07 148.17 109.18 146.00 112.00
C 144.89 105.68 147.58 98.46 152.00 94.00
C 153.93 91.27 155.99 87.73 158.00 85.00
C 159.28 83.26 161.94 80.56 162.75 78.75 C 163.57 76.95 168.95 74.35 169.00 73.00
C 168.61 71.63 167.80 72.60 167.00 73.00 Z"/>
</g>
<g fill="#E89190" fill-opacity="1.00" stroke="None">
<path d="
M 108.00 80.00 
C 110.71 78.46 113.14 75.51 115.00 73.00
C 113.45 74.78 109.95 78.69 108.00 80.00 Z"/>
</g>
<g fill="#5DC4C3" fill-opacity="1.00" stroke="None">
<path d="
M 158.00 80.00 
C 161.66 78.31 163.30 75.50 167.00 73.00
C 163.67 74.66 160.83 77.90 158.00 80.00 Z"/>
</g>
<g fill="#295EBA" fill-opacity="1.00" stroke="None">
<path d="
M 158.00 85.00 
C 157.75 86.28 158.75 87.72 160.00 88.00
C 158.62 84.44 160.70 83.53 162.00 87.00
C 163.10 83.06 164.96 80.28 167.00 77.00
C 167.36 76.43 169.16 73.56 169.00 73.00
C 168.95 74.35 163.57 76.95 162.75 78.75 C 161.94 80.56 159.28 83.26 158.00 85.00 Z"/>
</g>
<g fill="#7B9EB2" fill-opacity="1.00" stroke="None">
<path d="
M 53.00 108.00 
C 53.00 107.96 54.00 108.00 54.00 108.00
C 53.72 105.06 54.00 101.95 54.00 99.00
C 54.00 98.00 54.00 97.00 54.00 96.00
C 54.00 90.20 54.83 83.73 54.00 78.00
C 53.82 77.67 53.35 77.05 53.00 77.00
C 50.32 85.37 53.00 99.14 53.00 108.00 Z"/>
</g>
<g fill="#F9F9F7" fill-opacity="1.00" stroke="None">
<path d="
M 75.00 84.00 
C 75.00 85.33 75.00 86.67 75.00 88.00
C 75.00 91.67 75.00 95.33 75.00 99.00
C 75.00 104.67 75.00 110.33 75.00 116.00
C 75.00 120.16 77.09 131.56 75.00 135.00
C 80.32 133.83 86.94 135.19 92.00 136.00
C 80.42 119.11 76.43 97.73 80.00 77.00
C 78.34 76.90 76.66 77.13 75.00 77.00
C 75.72 78.56 75.00 82.25 75.00 84.00 Z"/>
</g>
<g fill="#0F668B" fill-opacity="1.00" stroke="None">
<path d="
M 54.00 96.00 
C 54.19 95.24 56.06 94.17 56.00 93.00
C 61.65 95.13 69.96 92.24 74.00 95.00
C 74.52 92.81 72.86 89.38 75.00 88.00
C 75.00 86.67 75.00 85.33 75.00 84.00
C 73.16 78.78 72.86 81.34 73.00 86.00
C 69.68 83.32 66.24 83.24 61.00 84.00 C 55.76 84.75 55.87 81.49 54.00 78.00
C 54.83 83.73 54.00 90.20 54.00 96.00 Z"/>
</g>
<g fill="#3EC0EC" fill-opacity="1.00" stroke="None">
<path d="
M 174.00 92.00 
C 170.43 90.28 177.80 82.96 176.00 80.00
C 167.18 77.34 165.16 92.23 174.00 92.00 Z"/>
</g>
<g fill="#3094D9" fill-opacity="1.00" stroke="None">
<path d="
M 174.00 92.00 
C 175.30 91.97 175.21 91.35 176.00 91.00
C 176.69 89.79 176.92 79.91 180.00 83.00
C 179.06 81.06 177.89 80.57 176.00 80.00
C 177.80 82.96 170.43 90.28 174.00 92.00 Z"/>
</g>
<g fill="#2867C6" fill-opacity="1.00" stroke="None">
<path d="
M 176.00 91.00 
C 179.49 89.48 181.97 87.04 180.00 83.00
C 176.92 79.91 176.69 89.79 176.00 91.00 Z"/>
</g>
<g fill="#237CD3" fill-opacity="1.00" stroke="None">
<path d="
M 158.00 85.00 
C 155.99 87.73 153.93 91.27 152.00 94.00
C 150.35 99.57 167.16 103.08 173.00 103.00
C 175.64 101.76 182.50 101.10 185.01 100.01 C 187.52 98.91 195.96 96.73 194.00 100.00
C 198.22 97.80 204.18 100.39 208.00 98.00
C 199.00 96.10 188.17 94.65 179.01 97.01 C 169.85 99.36 158.67 98.94 162.00 87.00
C 160.70 83.53 158.62 84.44 160.00 88.00
C 158.75 87.72 157.75 86.28 158.00 85.00 Z"/>
</g>
<g fill="#12527B" fill-opacity="1.00" stroke="None">
<path d="
M 54.00 96.00 
C 54.00 97.00 54.00 98.00 54.00 99.00
C 54.09 99.50 55.83 100.86 55.00 102.00
C 60.57 100.25 68.64 101.05 73.00 104.00
C 72.86 102.19 73.44 99.92 75.00 99.00
C 75.00 95.33 75.00 91.67 75.00 88.00
C 72.86 89.38 74.52 92.81 74.00 95.00
C 69.96 92.24 61.65 95.13 56.00 93.00
C 56.06 94.17 54.19 95.24 54.00 96.00 Z"/>
</g>
<g fill="#F9A10F" fill-opacity="1.00" stroke="None">
<path d="
M 109.00 110.00 
C 109.00 115.17 109.46 120.27 111.00 125.00
C 112.12 128.46 116.32 138.99 120.00 141.00
C 123.22 141.51 126.30 141.82 129.00 143.00
C 129.42 143.18 130.00 143.00 130.00 143.00
C 125.94 136.39 120.55 127.85 124.00 120.00
C 125.27 122.19 126.56 126.08 130.00 124.00
C 130.01 122.39 129.41 119.57 132.00 120.00
C 132.16 118.74 132.76 118.78 133.00 118.00
C 133.16 115.58 133.38 113.32 134.00 111.00
C 134.87 107.73 136.33 104.90 138.00 102.00
C 135.78 100.35 134.25 98.45 133.00 96.00
C 129.33 96.82 128.03 96.88 132.00 99.00
C 127.92 99.17 124.26 100.61 120.00 100.00
C 119.96 97.67 120.05 95.33 120.00 93.00
C 118.37 98.72 118.07 105.90 119.00 112.00
C 115.85 112.51 117.62 107.13 114.00 108.00
C 114.98 111.50 111.87 112.22 111.00 115.00
C 110.18 114.11 109.16 111.05 109.00 110.00 Z"/>
</g>
<g fill="#2496DE" fill-opacity="1.00" stroke="None">
<path d="
M 159.00 112.00 
C 159.85 111.22 161.09 110.63 162.00 110.00
C 165.15 107.82 169.16 106.96 172.00 105.00
C 172.35 104.76 172.76 103.11 173.00 103.00
C 167.16 103.08 150.35 99.57 152.00 94.00
C 147.58 98.46 144.89 105.68 146.00 112.00
C 148.17 109.18 148.50 113.07 150.00 109.00
C 150.01 113.61 151.10 110.22 152.00 108.00
C 154.71 108.79 156.89 110.86 156.00 114.00
C 157.13 113.58 157.95 112.63 159.00 112.00 Z"/>
</g>
<g fill="#1DA338" fill-opacity="1.00" stroke="None">
<path d="
M 173.00 103.00 
C 172.76 103.11 172.35 104.76 172.00 105.00
C 174.63 105.14 174.66 107.00 177.00 107.00
C 179.90 104.84 190.37 98.08 193.00 100.00
C 193.00 100.00 193.56 100.16 194.00 100.00
C 195.96 96.73 187.52 98.91 185.01 100.01 C 182.50 101.10 175.64 101.76 173.00 103.00 Z"/>
</g>
<g fill="#163A68" fill-opacity="1.00" stroke="None">
<path d="
M 54.00 108.00 
C 54.32 111.27 55.84 116.02 55.00 120.00
C 54.30 112.69 74.72 111.80 73.00 120.00
C 74.98 119.53 72.89 116.40 75.00 116.00
C 75.00 110.33 75.00 104.67 75.00 99.00
C 73.44 99.92 72.86 102.19 73.00 104.00
C 68.64 101.05 60.57 100.25 55.00 102.00
C 55.83 100.86 54.09 99.50 54.00 99.00
C 54.00 101.95 53.72 105.06 54.00 108.00 Z"/>
</g>
<g fill="#81E042" fill-opacity="1.00" stroke="None">
<path d="
M 177.00 107.00 
C 172.52 110.33 168.59 114.49 165.00 119.00
C 167.61 121.61 175.16 123.21 176.00 129.00
C 177.54 129.37 178.40 127.57 180.00 128.00
C 192.03 125.79 205.12 126.60 216.00 131.00
C 208.47 123.01 201.36 121.95 189.69 119.31 C 178.03 116.66 183.92 104.44 193.00 100.00
C 190.37 98.08 179.90 104.84 177.00 107.00 Z"/>
</g>
<g fill="#49C528" fill-opacity="1.00" stroke="None">
<path d="
M 162.00 110.00 
C 159.52 112.16 156.11 115.58 154.00 118.00
C 143.84 131.67 146.10 146.46 149.00 162.00
C 149.09 162.48 149.00 163.00 149.00 163.00
C 149.50 163.00 150.00 163.00 150.00 163.00
C 150.00 158.00 150.00 153.00 150.00 148.00
C 150.48 152.06 153.83 152.14 154.00 148.00
C 155.44 152.07 156.91 146.49 158.00 148.00
C 162.30 141.20 172.14 130.90 180.00 128.00
C 178.40 127.57 177.54 129.37 176.00 129.00
C 175.16 123.21 167.61 121.61 165.00 119.00
C 168.59 114.49 172.52 110.33 177.00 107.00
C 174.66 107.00 174.63 105.14 172.00 105.00
C 169.16 106.96 165.15 107.82 162.00 110.00 Z"/>
</g>
<g fill="#AAEF67" fill-opacity="1.00" stroke="None">
<path d="
M 189.00 111.00 
C 192.59 111.08 192.15 105.85 196.00 106.00
C 192.16 104.61 188.38 105.52 189.00 111.00 Z"/>
</g>
<g fill="#5ACA34" fill-opacity="1.00" stroke="None">
<path d="
M 189.00 111.00 
C 189.44 114.95 193.91 117.25 197.00 115.00
C 196.45 115.45 193.96 115.09 194.00 114.00
C 197.89 114.35 197.40 109.70 199.00 108.00
C 198.34 106.27 197.44 106.52 196.00 106.00
C 192.15 105.85 192.59 111.08 189.00 111.00 Z"/>
</g>
<g fill="#7D809B" fill-opacity="1.00" stroke="None">
<path d="
M 53.00 142.00 
C 53.44 141.84 54.00 142.00 54.00 142.00
C 54.25 141.75 54.00 141.00 54.00 141.00
C 54.00 130.15 54.98 118.80 54.00 108.00
C 54.00 108.00 53.00 107.96 53.00 108.00
C 53.00 119.18 51.99 130.87 53.00 142.00 Z"/>
</g>
<g fill="#17184E" fill-opacity="1.00" stroke="None">
<path d="
M 54.00 141.00 
C 60.09 139.25 65.67 137.07 72.00 136.00
C 73.12 135.81 74.34 135.14 75.00 135.00
C 77.09 131.56 75.00 120.16 75.00 116.00
C 72.89 116.40 74.98 119.53 73.00 120.00
C 74.72 111.80 54.30 112.69 55.00 120.00
C 55.84 116.02 54.32 111.27 54.00 108.00
C 54.98 118.80 54.00 130.15 54.00 141.00 Z"/>
</g>
<g fill="#2595DD" fill-opacity="1.00" stroke="None">
<path d="
M 134.00 111.00 
C 133.38 113.32 133.16 115.58 133.00 118.00
C 132.75 121.63 133.00 125.36 133.00 129.00
C 133.40 130.07 134.03 132.17 135.00 133.00
C 134.72 130.28 137.18 127.73 140.00 128.00
C 140.56 130.52 138.81 134.30 141.00 136.00
C 139.88 126.55 142.58 118.04 143.00 109.00
C 139.52 115.71 137.05 103.34 138.00 115.00
C 136.54 113.61 136.65 111.38 134.00 111.00 Z"/>
</g>
<g fill="#279924" fill-opacity="1.00" stroke="None">
<path d="
M 197.00 115.00 
C 198.64 113.68 199.87 110.28 199.00 108.00
C 197.40 109.70 197.89 114.35 194.00 114.00
C 193.96 115.09 196.45 115.45 197.00 115.00 Z"/>
</g>
<g fill="#31B07C" fill-opacity="1.00" stroke="None">
<path d="
M 159.00 112.00 
C 157.30 113.56 155.43 116.08 154.00 118.00
C 156.11 115.58 159.52 112.16 162.00 110.00
C 161.09 110.63 159.85 111.22 159.00 112.00 Z"/>
</g>
<g fill="#7A9B90" fill-opacity="1.00" stroke="None">
<path d="
M 132.00 120.00 
C 131.56 123.54 132.50 127.20 133.00 130.00
C 132.99 129.50 133.00 129.00 133.00 129.00
C 133.00 125.36 132.75 121.63 133.00 118.00
C 132.76 118.78 132.16 118.74 132.00 120.00 Z"/>
</g>
<g fill="#F2BB1D" fill-opacity="1.00" stroke="None">
<path d="
M 130.00 143.00 
C 130.35 143.23 131.52 142.91 132.00 143.00
C 132.85 143.16 133.87 144.17 134.00 145.00
C 134.07 145.49 134.00 146.00 134.00 146.00
C 133.85 146.40 133.12 148.88 133.00 149.00
C 136.51 149.29 137.10 154.85 139.75 156.25 C 142.41 157.65 145.23 160.47 147.00 163.00
C 147.50 163.00 148.00 163.00 148.00 163.00
C 143.29 154.18 138.01 147.65 135.00 138.00
C 134.11 135.14 133.07 133.18 133.00 130.00
C 132.50 127.20 131.56 123.54 132.00 120.00
C 129.41 119.57 130.01 122.39 130.00 124.00
C 126.56 126.08 125.27 122.19 124.00 120.00
C 120.55 127.85 125.94 136.39 130.00 143.00 Z"/>
</g>
<g fill="#247BD2" fill-opacity="1.00" stroke="None">
<path d="
M 133.00 129.00 
C 133.00 129.00 132.99 129.50 133.00 130.00
C 133.07 133.18 134.11 135.14 135.00 138.00
C 134.67 137.49 139.26 138.08 137.00 141.00
C 138.25 139.99 138.92 137.13 141.00 139.00
C 141.00 138.00 141.00 137.00 141.00 136.00
C 138.81 134.30 140.56 130.52 140.00 128.00
C 137.18 127.73 134.72 130.28 135.00 133.00
C 134.03 132.17 133.40 130.07 133.00 129.00 Z"/>
</g>
<g fill="#333333" fill-opacity="1.00" stroke="None">
<path d="
M 151.00 164.00 
C 151.17 165.31 150.87 166.68 151.00 168.00
C 148.86 167.44 148.89 165.46 150.00 164.00
C 150.20 163.60 150.00 163.00 150.00 163.00
C 150.00 163.00 149.50 163.00 149.00 163.00
C 148.50 163.00 148.00 163.00 148.00 163.00
C 148.00 163.00 147.50 163.00 147.00 163.00
C 146.50 163.00 146.00 163.00 146.00 163.00
C 145.50 163.00 145.00 163.00 145.00 163.00
C 142.68 163.00 140.32 162.89 138.00 163.00
C 125.85 163.56 103.53 160.30 96.00 151.00
C 99.28 150.57 102.47 149.52 106.00 150.00
C 107.84 149.81 110.25 149.87 112.00 150.00
C 117.26 150.40 122.72 150.00 128.00 150.00
C 128.50 150.00 129.00 150.00 129.00 150.00
C 127.74 148.42 128.58 145.00 129.00 143.00
C 126.30 141.82 123.22 141.51 120.00 141.00
C 110.62 139.51 101.37 137.49 92.00 136.00
C 86.94 135.19 80.32 133.83 75.00 135.00
C 74.34 135.14 73.12 135.81 72.00 136.00
C 66.48 137.99 60.16 140.85 54.00 142.00
C 54.00 142.00 53.44 141.84 53.00 142.00
C 39.09 148.69 34.89 164.54 28.00 177.00
C 58.03 163.84 87.45 182.71 115.78 188.22 C 144.10 193.73 172.36 177.64 193.00 160.00
C 196.59 156.41 200.46 152.54 204.00 149.00
C 206.85 145.67 218.55 134.45 210.00 133.00 C 201.45 131.55 195.89 138.75 190.75 143.75 C 185.61 148.75 178.67 151.53 172.70 155.70 C 166.72 159.86 158.49 163.80 151.00 164.00 Z"/>
</g>
<g fill="#2C283B" fill-opacity="1.00" stroke="None">
<path d="
M 54.00 141.00 
C 54.00 141.00 54.25 141.75 54.00 142.00
C 60.16 140.85 66.48 137.99 72.00 136.00
C 65.67 137.07 60.09 139.25 54.00 141.00 Z"/>
</g>
<g fill="#2261C1" fill-opacity="1.00" stroke="None">
<path d="
M 135.00 138.00 
C 138.01 147.65 143.29 154.18 148.00 163.00
C 148.00 163.00 148.50 163.00 149.00 163.00
C 149.00 163.00 149.09 162.48 149.00 162.00
C 144.59 156.50 140.97 146.26 141.00 139.00
C 138.92 137.13 138.25 139.99 137.00 141.00
C 139.26 138.08 134.67 137.49 135.00 138.00 Z"/>
</g>
<g fill="#34381C" fill-opacity="1.00" stroke="None">
<path d="
M 129.00 150.00 
C 129.20 150.24 130.00 150.00 130.00 150.00
C 130.25 149.75 130.00 149.00 130.00 149.00
C 130.00 147.14 130.38 144.82 130.00 143.00
C 130.00 143.00 129.42 143.18 129.00 143.00
C 128.58 145.00 127.74 148.42 129.00 150.00 Z"/>
</g>
<g fill="#2B243D" fill-opacity="1.00" stroke="None">
<path d="
M 130.00 149.00 
C 131.22 147.95 132.82 147.01 134.00 146.00
C 134.00 146.00 134.07 145.49 134.00 145.00
C 132.99 145.32 131.93 145.33 131.00 146.00
C 130.47 144.72 131.97 144.14 132.00 143.00
C 131.52 142.91 130.35 143.23 130.00 143.00
C 130.38 144.82 130.00 147.14 130.00 149.00 Z"/>
</g>
<g fill="#494320" fill-opacity="1.00" stroke="None">
<path d="
M 134.00 145.00 
C 133.87 144.17 132.85 143.16 132.00 143.00
C 131.97 144.14 130.47 144.72 131.00 146.00
C 131.93 145.33 132.99 145.32 134.00 145.00 Z"/>
</g>
<g fill="#644318" fill-opacity="1.00" stroke="None">
<path d="
M 130.00 149.00 
C 130.00 149.00 130.25 149.75 130.00 150.00
C 130.40 149.85 132.88 149.12 133.00 149.00
C 133.12 148.88 133.85 146.40 134.00 146.00
C 132.82 147.01 131.22 147.95 130.00 149.00 Z"/>
</g>
<g fill="#2AA623" fill-opacity="1.00" stroke="None">
<path d="
M 150.00 163.00 
C 150.00 163.00 150.20 163.60 150.00 164.00
C 150.25 164.25 151.00 164.00 151.00 164.00
C 153.02 158.63 154.86 152.96 158.00 148.00
C 156.91 146.49 155.44 152.07 154.00 148.00
C 153.83 152.14 150.48 152.06 150.00 148.00
C 150.00 153.00 150.00 158.00 150.00 163.00 Z"/>
</g>
<g fill="#0E2F1C" fill-opacity="1.00" stroke="None">
<path d="
M 106.00 150.00 
C 107.00 150.03 108.00 150.00 109.00 150.00
C 109.91 150.00 111.12 149.81 112.00 150.00
C 110.25 149.87 107.84 149.81 106.00 150.00 Z"/>
</g>
<g fill="#F77F0E" fill-opacity="1.00" stroke="None">
<path d="
M 130.00 150.00 
C 130.00 150.00 129.20 150.24 129.00 150.00
C 133.50 156.91 141.84 157.58 146.00 163.00
C 146.00 163.00 146.50 163.00 147.00 163.00
C 145.23 160.47 142.41 157.65 139.75 156.25 C 137.10 154.85 136.51 149.29 133.00 149.00
C 132.88 149.12 130.40 149.85 130.00 150.00 Z"/>
</g>
<g fill="#868686" fill-opacity="1.00" stroke="None">
<path d="
M 193.00 160.00 
C 196.89 156.67 200.63 152.94 204.00 149.00
C 200.46 152.54 196.59 156.41 193.00 160.00 Z"/>
</g>
<g fill="#EFEDEB" fill-opacity="1.00" stroke="None">
<path d="
M 138.00 163.00 
C 127.04 161.63 118.46 154.00 109.00 150.00
C 108.00 150.00 107.00 150.03 106.00 150.00
C 102.47 149.52 99.28 150.57 96.00 151.00
C 103.53 160.30 125.85 163.56 138.00 163.00 Z"/>
</g>
<g fill="#C01915" fill-opacity="1.00" stroke="None">
<path d="
M 138.00 163.00 
C 140.32 162.89 142.68 163.00 145.00 163.00
C 139.01 159.86 129.37 152.58 123.00 151.00
C 119.09 151.16 115.20 150.70 112.00 150.00
C 111.12 149.81 109.91 150.00 109.00 150.00
C 118.46 154.00 127.04 161.63 138.00 163.00 Z"/>
</g>
<g fill="#6F2321" fill-opacity="1.00" stroke="None">
<path d="
M 123.00 151.00 
C 125.09 150.92 126.55 151.40 128.00 150.00
C 122.72 150.00 117.26 150.40 112.00 150.00
C 115.20 150.70 119.09 151.16 123.00 151.00 Z"/>
</g>
<g fill="#F5310E" fill-opacity="1.00" stroke="None">
<path d="
M 123.00 151.00 
C 129.37 152.58 139.01 159.86 145.00 163.00
C 145.00 163.00 145.50 163.00 146.00 163.00
C 141.84 157.58 133.50 156.91 129.00 150.00
C 129.00 150.00 128.50 150.00 128.00 150.00
C 126.55 151.40 125.09 150.92 123.00 151.00 Z"/>
</g>
<g fill="#2D2B42" fill-opacity="1.00" stroke="None">
<path d="
M 151.00 164.00 
C 151.00 164.00 150.25 164.25 150.00 164.00
C 148.89 165.46 148.86 167.44 151.00 168.00
C 150.87 166.68 151.17 165.31 151.00 164.00 Z"/>
</g>
<g fill="#DADADA" fill-opacity="1.00" stroke="None">
<path d="
M 160.00 198.00 
C 130.58 196.02 95.91 190.25 69.00 201.00
C 78.96 203.31 90.58 204.88 101.00 205.00 C 111.42 205.13 122.99 207.25 132.33 205.33 C 141.67 203.41 156.63 206.81 160.00 198.00 Z"/>
</g>
</svg>